<svg viewBox="0 0 12.5 13.5" xmlns="http://www.w3.org/2000/svg" xmlns:xlink="http://www.w3.org/1999/xlink" width="12.500000" height="13.500000" fill="none" customFrame="#000000">
	<path id="Vector" d="M6.25 6.50926C5.82975 6.5094 5.42358 6.65516 5.10574 6.9199C4.78789 7.18465 4.5796 7.5507 4.51892 7.95114C4.45825 8.35159 4.54925 8.75969 4.77529 9.10085C5.00133 9.44201 5.34731 9.69345 5.75 9.80921L5.75 10.8426C5.75 10.9703 5.80268 11.0928 5.89645 11.1831C5.99021 11.2733 6.11739 11.3241 6.25 11.3241C6.38261 11.3241 6.50979 11.2733 6.60355 11.1831C6.69732 11.0928 6.75 10.9703 6.75 10.8426L6.75 9.80921C7.15269 9.69345 7.49867 9.44201 7.72471 9.10085C7.95075 8.75969 8.04175 8.35159 7.98108 7.95114C7.9204 7.5507 7.71211 7.18465 7.39426 6.9199C7.07642 6.65516 6.67025 6.5094 6.25 6.50926ZM6.25 8.91667C6.10166 8.91667 5.95666 8.87431 5.83332 8.79495C5.70999 8.71559 5.61386 8.6028 5.55709 8.47083C5.50032 8.33886 5.48547 8.19364 5.51441 8.05355C5.54335 7.91345 5.61478 7.78476 5.71967 7.68376C5.82456 7.58275 5.9582 7.51397 6.10368 7.4861C6.24917 7.45823 6.39997 7.47254 6.53701 7.5272C6.67406 7.58186 6.79119 7.67443 6.8736 7.7932C6.95601 7.91197 7 8.0516 7 8.19444C7 8.38599 6.92098 8.56969 6.78033 8.70513C6.63968 8.84058 6.44891 8.91667 6.25 8.91667ZM11.25 4.58333L9.25 4.58333L9.25 3.13889C9.25 2.37271 8.93393 1.63791 8.37132 1.09614C7.80871 0.554364 7.04565 0.25 6.25 0.25C5.45435 0.25 4.69129 0.554364 4.12868 1.09614C3.56607 1.63791 3.25 2.37271 3.25 3.13889L3.25 4.58333L1.25 4.58333C0.984784 4.58333 0.73043 4.68479 0.542893 4.86538C0.355357 5.04597 0.25 5.2909 0.25 5.5463L0.25 12.287C0.25 12.5424 0.355357 12.7874 0.542893 12.968C0.73043 13.1485 0.984784 13.25 1.25 13.25L11.25 13.25C11.5152 13.25 11.7696 13.1485 11.9571 12.968C12.1446 12.7874 12.25 12.5424 12.25 12.287L12.25 5.5463C12.25 5.2909 12.1446 5.04597 11.9571 4.86538C11.7696 4.68479 11.5152 4.58333 11.25 4.58333ZM4.25 3.13889C4.25 2.6281 4.46071 2.13823 4.83579 1.77705C5.21086 1.41587 5.71957 1.21296 6.25 1.21296C6.78043 1.21296 7.28914 1.41587 7.66421 1.77705C8.03929 2.13823 8.25 2.6281 8.25 3.13889L8.25 4.58333L4.25 4.58333L4.25 3.13889ZM11.25 12.287L1.25 12.287L1.25 5.5463L11.25 5.5463L11.25 12.287Z" fill="rgb(153.245,153.245,153.245)" fill-rule="nonzero" />
	<path id="Vector" d="M9.25 4.58333L11.25 4.58333C11.5152 4.58333 11.7696 4.68479 11.9571 4.86538C12.1446 5.04597 12.25 5.2909 12.25 5.5463L12.25 12.287C12.25 12.5424 12.1446 12.7874 11.9571 12.968C11.7696 13.1485 11.5152 13.25 11.25 13.25L1.25 13.25C0.984784 13.25 0.73043 13.1485 0.542893 12.968C0.355357 12.7874 0.25 12.5424 0.25 12.287L0.25 5.5463C0.25 5.2909 0.355357 5.04597 0.542893 4.86538C0.73043 4.68479 0.984784 4.58333 1.25 4.58333L3.25 4.58333L3.25 3.13889C3.25 2.37271 3.56607 1.63791 4.12868 1.09614C4.69129 0.554364 5.45435 0.25 6.25 0.25C7.04565 0.25 7.80871 0.554364 8.37132 1.09614C8.93393 1.63791 9.25 2.37271 9.25 3.13889L9.25 4.58333ZM3 4.33333L3 3.13889C3 2.72962 3.07069 2.34869 3.21207 1.99611C3.37075 1.60038 3.61849 1.24037 3.95527 0.916056C4.25297 0.629381 4.57948 0.409991 4.93478 0.257886C5.33639 0.085962 5.7748 0 6.25 0C6.7252 0 7.1636 0.0859602 7.5652 0.257881C7.92052 0.409986 8.24703 0.629377 8.54473 0.916056C8.88151 1.24036 9.12924 1.60037 9.28792 1.9961C9.42931 2.34868 9.5 2.72961 9.5 3.13889L9.5 4.33333L11.25 4.33333C11.4308 4.33333 11.5978 4.36586 11.7509 4.43092C11.8886 4.48942 12.0152 4.57421 12.1305 4.6853C12.2598 4.80978 12.3551 4.94799 12.4166 5.0999C12.4722 5.23746 12.5 5.38625 12.5 5.5463L12.5 12.287C12.5 12.4471 12.4722 12.5959 12.4166 12.7334C12.3551 12.8853 12.2598 13.0236 12.1305 13.148C12.0152 13.2591 11.8886 13.3439 11.7509 13.4024C11.5978 13.4675 11.4308 13.5 11.25 13.5L1.25 13.5C1.06921 13.5 0.902233 13.4675 0.749077 13.4024C0.611375 13.3439 0.484843 13.2591 0.369483 13.148C0.240209 13.0235 0.144858 12.8853 0.0834288 12.7334C0.0278096 12.5959 0 12.4471 0 12.287L-2.98023e-08 5.5463C-2.98023e-08 5.38625 0.02781 5.23746 0.0834301 5.0999C0.144859 4.94799 0.24021 4.80978 0.369483 4.6853C0.484845 4.57421 0.611378 4.48942 0.749081 4.43092C0.902236 4.36586 1.06921 4.33333 1.25 4.33333L3 4.33333ZM4.83579 1.77705C4.46071 2.13823 4.25 2.6281 4.25 3.13889L4.25 4.58333L8.25 4.58333L8.25 3.13889C8.25 2.6281 8.03929 2.13823 7.66421 1.77705C7.28914 1.41587 6.78043 1.21296 6.25 1.21296C5.71957 1.21296 5.21086 1.41587 4.83579 1.77705ZM8 4.33333L8 3.13889C8 2.92507 7.96348 2.72567 7.89043 2.5407C7.80601 2.32691 7.6728 2.13239 7.4908 1.95713C7.33264 1.80483 7.1592 1.68773 6.97049 1.60584C6.75099 1.51059 6.51083 1.46296 6.25 1.46296C5.98917 1.46296 5.749 1.51059 5.5295 1.60584C5.34079 1.68774 5.16735 1.80483 5.0092 1.95713C4.8272 2.13239 4.69399 2.32691 4.60957 2.5407C4.53652 2.72567 4.5 2.92507 4.5 3.13889L4.5 4.33333L8 4.33333ZM1.25 12.287L11.25 12.287L11.25 5.5463L1.25 5.5463L1.25 12.287ZM1.5 5.7963L1.5 12.037L11 12.037L11 5.7963L1.5 5.7963ZM5.51343 6.3912C5.31098 6.469 5.12175 6.5812 4.94574 6.72781C4.74344 6.89631 4.58501 7.08817 4.47046 7.30337C4.37145 7.48937 4.30521 7.69281 4.27175 7.91369C4.23684 8.14404 4.24169 8.3661 4.28629 8.57986C4.33411 8.80909 4.42764 9.02878 4.56688 9.23893C4.68912 9.42342 4.83303 9.58002 4.99862 9.70873C5.14809 9.82491 5.31521 9.91837 5.5 9.9891L5.5 10.8426C5.5 10.9403 5.51709 11.0311 5.55127 11.1149C5.58838 11.2059 5.64564 11.2886 5.72304 11.3631C5.79281 11.4303 5.86935 11.4815 5.95265 11.5166C6.04369 11.5549 6.14281 11.5741 6.25 11.5741C6.35719 11.5741 6.45631 11.5549 6.54735 11.5166C6.63065 11.4815 6.70719 11.4303 6.77696 11.3631C6.85436 11.2886 6.91161 11.2059 6.94872 11.1149C6.98291 11.0311 7 10.9403 7 10.8426L7 9.9891C7.18478 9.91837 7.35191 9.82492 7.50137 9.70875C7.66696 9.58003 7.81088 9.42343 7.93312 9.23893C8.07236 9.02878 8.16589 8.8091 8.21371 8.57987C8.25831 8.36611 8.26316 8.14404 8.22825 7.91369C8.19479 7.69281 8.12855 7.48938 8.02955 7.30339C7.91499 7.08817 7.75656 6.89632 7.55426 6.72781C7.37808 6.58106 7.18865 6.46878 6.98599 6.39097C6.75751 6.30325 6.51221 6.25934 6.25008 6.25926C5.98766 6.25934 5.74212 6.30333 5.51343 6.3912ZM6.75 9.80921C7.15269 9.69345 7.49867 9.44201 7.72471 9.10085C7.95075 8.75969 8.04175 8.35159 7.98108 7.95114C7.9204 7.5507 7.71211 7.18465 7.39426 6.9199C7.07642 6.65516 6.67025 6.5094 6.25 6.50926C5.82975 6.5094 5.42358 6.65516 5.10574 6.9199C4.78789 7.18465 4.5796 7.5507 4.51892 7.95114C4.45825 8.35159 4.54925 8.75969 4.77529 9.10085C5.00133 9.44201 5.34731 9.69345 5.75 9.80921L5.75 10.8426C5.75 10.9703 5.80268 11.0928 5.89645 11.1831C5.99021 11.2733 6.11739 11.3241 6.25 11.3241C6.38261 11.3241 6.50979 11.2733 6.60355 11.1831C6.69732 11.0928 6.75 10.9703 6.75 10.8426L6.75 9.80921ZM5.83332 8.79495C5.95666 8.87431 6.10166 8.91667 6.25 8.91667C6.44891 8.91667 6.63968 8.84058 6.78033 8.70513C6.92098 8.56969 7 8.38599 7 8.19444C7 8.0516 6.95601 7.91197 6.8736 7.7932C6.79119 7.67443 6.67406 7.58186 6.53701 7.5272C6.39997 7.47254 6.24917 7.45823 6.10368 7.4861C5.9582 7.51397 5.82456 7.58275 5.71967 7.68376C5.61478 7.78476 5.54335 7.91345 5.51441 8.05355C5.48547 8.19364 5.50032 8.33886 5.55709 8.47083C5.61386 8.6028 5.70999 8.71559 5.83332 8.79495ZM6.08785 8.64162C6.04632 8.62812 6.00657 8.60915 5.9686 8.58471C5.91928 8.55298 5.87791 8.51519 5.8445 8.47133C5.82147 8.44111 5.80222 8.40802 5.78675 8.37204C5.76741 8.32709 5.75563 8.28146 5.75141 8.23513C5.74749 8.19206 5.7501 8.14838 5.75924 8.10412C5.76733 8.06498 5.77995 8.02809 5.79711 7.99344C5.8206 7.94603 5.85259 7.90283 5.89308 7.86384C5.92325 7.83479 5.95595 7.81015 5.99118 7.78994C6.03958 7.76217 6.09276 7.74274 6.15071 7.73164C6.20304 7.72161 6.25456 7.71928 6.30526 7.72463C6.35234 7.7296 6.39871 7.74119 6.44439 7.75941C6.4998 7.78151 6.54857 7.81114 6.59069 7.8483C6.61967 7.87388 6.64551 7.90302 6.66821 7.93572C6.6983 7.97909 6.72009 8.02479 6.73357 8.07283C6.74452 8.11183 6.75 8.15237 6.75 8.19444C6.75 8.2525 6.74027 8.30681 6.72082 8.35738C6.69719 8.41879 6.65923 8.47468 6.60692 8.52505C6.56272 8.56762 6.51426 8.60059 6.46155 8.62396C6.39734 8.65243 6.32683 8.66667 6.25 8.66667C6.19324 8.66667 6.13919 8.65832 6.08785 8.64162Z" fill="rgb(153.245,153.245,153.245)" fill-opacity="0" fill-rule="evenodd" />
</svg>
