<svg viewBox="0 0 12 8" xmlns="http://www.w3.org/2000/svg" xmlns:xlink="http://www.w3.org/1999/xlink" width="12.000000" height="8.000000" fill="none" customFrame="#000000">
	<path id="Vector" d="M11.3535 1.49625L6.35373 7.32894C6.3073 7.38317 6.25216 7.42619 6.19146 7.45554C6.13076 7.48489 6.0657 7.5 6 7.5C5.93429 7.5 5.86924 7.48489 5.80854 7.45554C5.74784 7.42619 5.6927 7.38317 5.64627 7.32894L0.646521 1.49625C0.552705 1.38681 0.5 1.23837 0.5 1.08359C0.5 0.928814 0.552705 0.780375 0.646521 0.67093C0.740336 0.561485 0.867577 0.5 1.00025 0.5C1.13293 0.5 1.26017 0.561485 1.35398 0.67093L6 6.09168L10.646 0.67093C10.6925 0.616738 10.7476 0.573751 10.8083 0.544423C10.869 0.515095 10.9341 0.5 10.9997 0.5C11.0654 0.5 11.1305 0.515095 11.1912 0.544423C11.2519 0.573751 11.307 0.616738 11.3535 0.67093C11.3999 0.725121 11.4368 0.789456 11.4619 0.860261C11.4871 0.931066 11.5 1.00695 11.5 1.08359C11.5 1.16023 11.4871 1.23612 11.4619 1.30692C11.4368 1.37773 11.3999 1.44206 11.3535 1.49625Z" fill="rgb(98,131,159)" fill-rule="nonzero" />
	<path id="Vector" d="M6.35373 7.32894C6.3073 7.38317 6.25216 7.42619 6.19146 7.45554C6.13076 7.48489 6.0657 7.5 6 7.5C5.93429 7.5 5.86924 7.48489 5.80854 7.45554C5.74784 7.42619 5.6927 7.38317 5.64627 7.32894L0.646521 1.49625C0.552705 1.38681 0.5 1.23837 0.5 1.08359C0.5 0.928814 0.552705 0.780375 0.646521 0.67093C0.740336 0.561485 0.867577 0.5 1.00025 0.5C1.13293 0.5 1.26017 0.561485 1.35398 0.67093L6 6.09168L10.646 0.67093C10.6925 0.616738 10.7476 0.573751 10.8083 0.544423C10.869 0.515095 10.9341 0.5 10.9997 0.5C11.0654 0.5 11.1305 0.515095 11.1912 0.544423C11.2519 0.573751 11.307 0.616738 11.3535 0.67093C11.3999 0.725121 11.4368 0.789456 11.4619 0.860261C11.4871 0.931066 11.5 1.00695 11.5 1.08359C11.5 1.16023 11.4871 1.23612 11.4619 1.30692C11.4368 1.37773 11.3999 1.44206 11.3535 1.49625L6.35373 7.32894Z" fill-rule="nonzero" stroke="rgb(98,131,159)" stroke-width="1" />
</svg>
