<svg width="15" height="16" viewBox="0 0 15 16" fill="none" xmlns="http://www.w3.org/2000/svg">
<path d="M13.037 1.16239H11.2593V0.581197C11.2593 0.427054 11.1968 0.279224 11.0857 0.170228C10.9746 0.061233 10.8238 0 10.6667 0C10.5095 0 10.3588 0.061233 10.2476 0.170228C10.1365 0.279224 10.0741 0.427054 10.0741 0.581197V1.16239H4.14815V0.581197C4.14815 0.427054 4.08571 0.279224 3.97458 0.170228C3.86345 0.061233 3.71272 0 3.55556 0C3.39839 0 3.24766 0.061233 3.13653 0.170228C3.0254 0.279224 2.96296 0.427054 2.96296 0.581197V1.16239H1.18519C0.870854 1.16239 0.569398 1.28486 0.347133 1.50285C0.124867 1.72084 0 2.0165 0 2.32479V13.9487C0 14.257 0.124867 14.5527 0.347133 14.7707C0.569398 14.9886 0.870854 15.1111 1.18519 15.1111H13.037C13.3514 15.1111 13.6528 14.9886 13.8751 14.7707C14.0974 14.5527 14.2222 14.257 14.2222 13.9487V2.32479C14.2222 2.0165 14.0974 1.72084 13.8751 1.50285C13.6528 1.28486 13.3514 1.16239 13.037 1.16239ZM2.96296 2.32479V2.90598C2.96296 3.06013 3.0254 3.20796 3.13653 3.31695C3.24766 3.42595 3.39839 3.48718 3.55556 3.48718C3.71272 3.48718 3.86345 3.42595 3.97458 3.31695C4.08571 3.20796 4.14815 3.06013 4.14815 2.90598V2.32479H10.0741V2.90598C10.0741 3.06013 10.1365 3.20796 10.2476 3.31695C10.3588 3.42595 10.5095 3.48718 10.6667 3.48718C10.8238 3.48718 10.9746 3.42595 11.0857 3.31695C11.1968 3.20796 11.2593 3.06013 11.2593 2.90598V2.32479H13.037V4.64957H1.18519V2.32479H2.96296ZM13.037 13.9487H1.18519V5.81197H13.037V13.9487ZM8 8.42735C8 8.59977 7.94787 8.76833 7.85019 8.91169C7.75252 9.05506 7.6137 9.1668 7.45127 9.23278C7.28885 9.29877 7.11013 9.31603 6.9377 9.28239C6.76527 9.24876 6.60688 9.16572 6.48257 9.0438C6.35826 8.92188 6.2736 8.76654 6.2393 8.59743C6.205 8.42832 6.22261 8.25303 6.28989 8.09373C6.35716 7.93443 6.47109 7.79827 6.61727 7.70248C6.76345 7.60668 6.93531 7.55556 7.11111 7.55556C7.34686 7.55556 7.57295 7.6474 7.73965 7.8109C7.90635 7.97439 8 8.19614 8 8.42735ZM11.2593 8.42735C11.2593 8.59977 11.2071 8.76833 11.1095 8.91169C11.0118 9.05506 10.873 9.1668 10.7105 9.23278C10.5481 9.29877 10.3694 9.31603 10.197 9.28239C10.0245 9.24876 9.86615 9.16572 9.74183 9.0438C9.61752 8.92188 9.53286 8.76654 9.49856 8.59743C9.46426 8.42832 9.48187 8.25303 9.54914 8.09373C9.61642 7.93443 9.73035 7.79827 9.87653 7.70248C10.0227 7.60668 10.1946 7.55556 10.3704 7.55556C10.6061 7.55556 10.8322 7.6474 10.9989 7.8109C11.1656 7.97439 11.2593 8.19614 11.2593 8.42735ZM4.74074 11.3333C4.74074 11.5058 4.68861 11.6743 4.59094 11.8177C4.49326 11.961 4.35444 12.0728 4.19202 12.1388C4.02959 12.2048 3.85087 12.222 3.67844 12.1884C3.50601 12.1547 3.34763 12.0717 3.22331 11.9498C3.099 11.8279 3.01434 11.6725 2.98004 11.5034C2.94574 11.3343 2.96335 11.159 3.03063 10.9997C3.0979 10.8404 3.21183 10.7043 3.35801 10.6085C3.50419 10.5127 3.67605 10.4615 3.85185 10.4615C4.0876 10.4615 4.31369 10.5534 4.48039 10.7169C4.64709 10.8804 4.74074 11.1021 4.74074 11.3333ZM8 11.3333C8 11.5058 7.94787 11.6743 7.85019 11.8177C7.75252 11.961 7.6137 12.0728 7.45127 12.1388C7.28885 12.2048 7.11013 12.222 6.9377 12.1884C6.76527 12.1547 6.60688 12.0717 6.48257 11.9498C6.35826 11.8279 6.2736 11.6725 6.2393 11.5034C6.205 11.3343 6.22261 11.159 6.28989 10.9997C6.35716 10.8404 6.47109 10.7043 6.61727 10.6085C6.76345 10.5127 6.93531 10.4615 7.11111 10.4615C7.34686 10.4615 7.57295 10.5534 7.73965 10.7169C7.90635 10.8804 8 11.1021 8 11.3333ZM11.2593 11.3333C11.2593 11.5058 11.2071 11.6743 11.1095 11.8177C11.0118 11.961 10.873 12.0728 10.7105 12.1388C10.5481 12.2048 10.3694 12.222 10.197 12.1884C10.0245 12.1547 9.86615 12.0717 9.74183 11.9498C9.61752 11.8279 9.53286 11.6725 9.49856 11.5034C9.46426 11.3343 9.48187 11.159 9.54914 10.9997C9.61642 10.8404 9.73035 10.7043 9.87653 10.6085C10.0227 10.5127 10.1946 10.4615 10.3704 10.4615C10.6061 10.4615 10.8322 10.5534 10.9989 10.7169C11.1656 10.8804 11.2593 11.1021 11.2593 11.3333Z" fill="#62839F"/>
</svg>
