<svg viewBox="0 0 11 10" xmlns="http://www.w3.org/2000/svg" xmlns:xlink="http://www.w3.org/1999/xlink" width="11.000000" height="10.000000" fill="none" customFrame="#000000">
	<path id="Vector" d="M10.7756 1.5344L9.63744 0.253723C9.49522 0.0912379 9.35 0 9.10181 0C8.85362 0 8.7084 0.0912379 8.56618 0.253723L4.44516 5.5L2.43073 3.29506C2.28822 3.1331 2.09553 3.04246 1.89485 3.04296C1.69417 3.04347 1.50183 3.1351 1.35995 3.29778L0.22182 4.60237C0.0797794 4.76544 1.68476e-16 4.98646 0 5.21689C5.05429e-16 5.44733 0.0797794 5.66834 0.22182 5.83141L3.61818 9.74519C3.68864 9.82598 3.77229 9.89006 3.86436 9.93378C3.95642 9.9775 4.0551 10 4.15476 10C4.25441 10 4.35309 9.9775 4.44516 9.93378C4.53723 9.89006 4.62088 9.82598 4.69134 9.74519L10.7779 2.7667C10.8485 2.68572 10.9045 2.58955 10.9426 2.48372C10.9807 2.37789 11.0002 2.26447 11 2.14998C10.9998 2.03549 10.9798 1.92218 10.9413 1.81654C10.9028 1.71091 10.8465 1.61502 10.7756 1.5344ZM4.15262 9.13149L0.756265 5.21771L1.21335 6.15103L2.5 8L4.17183 9.383C4.24272 9.46252 7 7 4.17183 6.27508C4.27102 6.27508 5.42911 8.57952 5.5 8.5L10.5 2.15191L10.2406 2.15191L4.15262 9.13149Z" fill="rgb(255,255,255)" fill-rule="nonzero" />
</svg>
